<?xml version="1.0" encoding="UTF-8" standalone="no"?><!DOCTYPE svg PUBLIC "-//W3C//DTD SVG 1.1//EN" "http://www.w3.org/Graphics/SVG/1.1/DTD/svg11.dtd"><svg width="100%" height="100%" viewBox="0 0 990 178" version="1.1" xmlns="http://www.w3.org/2000/svg" xmlns:xlink="http://www.w3.org/1999/xlink" xml:space="preserve" xmlns:serif="http://www.serif.com/" style="fill-rule:evenodd;clip-rule:evenodd;stroke-linejoin:round;stroke-miterlimit:2;"><path d="M198.259,10.44c7.507,-0.071 14.08,1.089 19.382,3.94c7.07,3.803 11.477,10.904 11.852,20.577c0.158,4.091 -1.067,9.156 -2.847,14.861c-1.78,5.705 -4.172,11.942 -6.576,17.747c-4.807,11.612 -9.673,21.515 -9.673,21.515c-0.426,0.903 -1.583,1.636 -2.582,1.636c-1.576,-0 -2.855,-1.28 -2.855,-2.856c-0,-0.379 0.14,-0.96 0.312,-1.297c-0,-0 4.797,-9.769 9.522,-21.182c2.362,-5.707 4.703,-11.82 6.401,-17.264c1.697,-5.443 2.693,-10.325 2.591,-12.939c-0.317,-8.18 -3.383,-12.828 -8.85,-15.768c-5.466,-2.94 -13.739,-3.881 -23.893,-2.826c-20.308,2.108 -47.797,11.981 -75.069,25.32c-27.272,13.338 -54.413,30.126 -74.407,45.859c-9.997,7.866 -18.209,15.481 -23.716,22.154c-5.508,6.673 -8.042,12.415 -7.763,15.8c0.316,3.842 2.854,6.828 8.244,9.485c5.39,2.657 13.391,4.586 23.072,5.742c19.363,2.312 45.432,1.654 71.968,-0.405c53.072,-4.117 108.453,-13.848 116.969,-15.722c0.177,-0.041 0.47,-0.075 0.653,-0.075c1.576,-0 2.855,1.279 2.855,2.855c0,1.286 -1.022,2.539 -2.281,2.798c-9.484,2.086 -64.3,11.691 -117.754,15.838c-26.728,2.073 -53.005,2.779 -73.087,0.381c-10.041,-1.198 -18.537,-3.143 -24.921,-6.29c-6.384,-3.148 -10.896,-7.899 -11.41,-14.138c-0.511,-6.209 3.132,-12.734 9.051,-19.904c5.918,-7.171 14.382,-14.975 24.589,-23.007c20.415,-16.064 47.803,-32.989 75.429,-46.502c27.626,-13.512 55.406,-23.628 76.988,-25.869c2.698,-0.28 5.304,-0.441 7.806,-0.464Z" style="fill-rule:nonzero;"/><path d="M236.072,101.248c-3.579,-6.594 -8.838,-5.255 -13.208,-1.135c-2.041,1.917 -3.881,4.482 -5.172,7.03c-1.407,2.775 -2.208,5.705 -2.041,8.027c0.252,3.408 1.965,5.544 5.749,5.077c6.817,-0.878 12.781,-7.126 16.606,-12.275c-0.526,8.393 0.231,11.954 3.204,12.494c2.194,0.405 5.043,-2.191 9.484,-5.587c3.07,-2.348 4.918,-4.899 9.82,-7.99c1.012,-0.645 3.533,-2.261 3.045,-3.595c-0.488,-1.353 -1.713,-1.907 -2.726,-1.263c-5.047,3.186 -9.039,6.241 -12.178,8.631c-3.703,2.809 -6.075,4.63 -6.898,4.476c-0.433,-0.077 -0.076,-4.283 1.091,-15.339c0.103,-0.97 -0.212,-1.98 -0.86,-2.571c-0.922,-0.84 -2.194,-0.539 -2.847,0.678c0,0.019 -1,1.939 -2.725,4.466c-0.042,-0.381 -0.157,-0.78 -0.344,-1.124Zm-1.916,4.241c-3.302,4.217 -7.991,8.736 -13.133,9.39c-0.91,0.131 -1.285,0.016 -1.313,-0.213c-0.07,-1.066 0.468,-2.74 1.382,-4.546c1.045,-2.053 2.508,-4.105 4.143,-5.643c2.62,-2.468 5.683,-3.488 7.509,-0.096c0.359,0.629 0.878,1.011 1.412,1.108Z" style="fill-rule:nonzero;"/><path d="M252.71,112.417c-0.078,-0.452 4.762,-3.765 9.75,-7.195c2.452,-1.683 4.937,-3.387 7.027,-5c2.527,0.11 5.085,0.092 7.214,-0.043c-1.417,0.834 -3.409,2.014 -5.451,3.717c-7.876,6.613 -18.523,15.571 -17.68,18.68c0.43,1.544 1.853,2.221 4.551,1.786c5.123,-0.814 11.064,-2.513 16.435,-4.38c7.13,-2.484 12.597,-6.365 13.402,-7.565c2.094,-3.125 5.108,-4.998 4.354,-5.713c-0.754,-0.714 -6.222,3.574 -7.078,4.167c-1.857,1.279 -5.604,3.653 -12.379,6.007c-4.892,1.702 -10.209,3.251 -14.814,4.06c1.973,-2.705 10.03,-9.467 16.21,-14.664c2.912,-2.441 9.52,-6.595 8.181,-8.967c-0.59,-1.081 -1.645,-1.396 -3.188,-0.863c-1.066,0.379 -3.392,0.553 -6.094,0.544c1.145,-1.258 1.741,-2.382 1.469,-3.285c-0.559,-1.821 -3.191,-2.518 -8.932,-1.482c-4.456,0.801 -6.934,1.607 -7.974,2.372c-2.012,1.466 -1.581,2.758 0.543,3.869c0.902,0.467 2.363,0.837 4.102,1.116c0.477,0.086 0.985,0.152 1.509,0.219c-1.31,0.916 -2.712,1.871 -4.115,2.826c-5.858,4.021 -10.178,7.647 -11.111,10.204c-0.573,1.57 -0.865,1.768 0.263,1.458c1.064,-0.293 3.988,-0.95 3.806,-1.868Zm15.32,-15.597c-1.802,-0.118 -3.537,-0.301 -4.985,-0.538l-0.102,-0.011c0.945,-0.236 2.174,-0.502 3.73,-0.781c2.9,-0.521 3.88,-1.281 3.943,-1.071c0.084,0.273 -0.942,1.172 -2.586,2.401Z" style="fill-rule:nonzero;"/><path d="M288.887,111.992c0.366,-0.274 4.149,-3.263 9.034,-6.613c2.402,-1.643 4.836,-3.307 6.888,-4.887c2.421,0.15 4.876,0.172 6.922,0.07c-1.384,0.81 -3.329,1.959 -5.338,3.628c-7.749,6.486 -18.224,15.271 -17.506,18.39c0.368,1.549 1.714,2.248 4.315,1.856c4.939,-0.734 10.689,-2.34 15.896,-4.122c6.914,-2.371 12.998,-5.088 15.054,-6.499c0.838,-0.58 0.952,-1.635 0.249,-2.361c-0.703,-0.726 -1.949,-0.847 -2.788,-0.268c-1.818,1.249 -7.487,3.754 -14.056,6.001c-4.744,1.624 -9.89,3.089 -14.333,3.826c1.972,-2.672 9.899,-9.303 15.98,-14.4c2.864,-2.394 9.325,-6.441 8.11,-8.832c-0.536,-1.089 -1.538,-1.42 -3.034,-0.912c-1.034,0.362 -3.27,0.5 -5.863,0.449c1.135,-1.239 1.74,-2.352 1.505,-3.259c-0.483,-1.828 -2.989,-2.566 -8.527,-1.619c-4.3,0.731 -6.7,1.498 -7.72,2.246c-1.974,1.434 -1.597,2.731 0.408,3.874c0.853,0.48 2.244,0.873 3.904,1.178c0.455,0.094 0.941,0.168 1.441,0.243c-1.283,0.895 -2.657,1.828 -4.03,2.76c-5.078,3.475 -10.039,8.902 -8.28,7.167c3.968,-3.914 -0.394,0.509 -0.594,0.772c-0.561,0.739 -3.162,3.668 -2.083,3.576c1.079,-0.092 0.427,0.739 4.446,-2.264Zm14.623,-14.921c-1.726,-0.146 -3.386,-0.356 -4.769,-0.615l-0.097,-0.012c0.913,-0.221 2.1,-0.468 3.602,-0.723c2.798,-0.476 3.76,-1.22 3.814,-1.008c0.073,0.273 -0.938,1.155 -2.55,2.358Z" style="fill-rule:nonzero;"/><path d="M344.865,82.395c1.028,-0.021 1.96,0.674 2.207,1.717c0.266,1.192 -0.471,2.369 -1.663,2.652c-3.437,0.784 -6.544,7.296 -6.544,7.312c-0.533,1.098 -1.851,1.553 -2.95,1.02c-1.098,-0.518 -1.569,-1.836 -1.035,-2.934c0.016,-0.032 4.017,-8.442 9.54,-9.713c0.149,-0.034 0.298,-0.051 0.445,-0.054Zm-10.831,15.983c0.495,0.003 0.99,0.172 1.395,0.515c0.942,0.784 1.067,2.181 0.283,3.122c-2.605,3.107 -4.347,5.853 -5.084,8.018c-0.345,0.989 -0.455,1.758 -0.33,2.307c0.079,0.282 0.251,0.502 0.565,0.643c0.455,0.22 1.145,0.33 2.055,0.33c2.637,-0 6.826,-1.24 11.11,-2.871c6.433,-2.464 12.866,-5.728 14.765,-7.077c0.988,-0.706 2.369,-0.471 3.075,0.518c0.706,0.988 0.471,2.369 -0.517,3.075c-2.103,1.506 -9.007,5.037 -15.754,7.61c-4.707,1.805 -9.446,3.185 -12.679,3.185c-1.553,0 -2.855,-0.266 -3.922,-0.768c-1.632,-0.769 -2.621,-2.009 -2.997,-3.641c-0.33,-1.381 -0.157,-2.981 0.439,-4.738c0.926,-2.668 2.934,-5.9 5.884,-9.431c0.442,-0.529 1.077,-0.801 1.712,-0.797Z" style="fill-rule:nonzero;"/><path d="M369.788,106.108c0.062,-0 20.759,-1.429 14.922,-13.323c-1.401,-2.854 -3.735,-3.766 -6.449,-3.311c-2.087,0.345 -4.346,1.616 -6.449,3.452c-1.993,1.742 -3.876,4.001 -5.351,6.481c-3.358,5.633 -4.581,12.442 -0.141,16.993c0.11,0.094 0.22,0.188 0.345,0.282c4.99,3.374 12.443,2.48 20.634,-0.392c7.736,-2.699 16.209,-7.139 23.787,-11.297c1.068,-0.581 1.46,-1.915 0.879,-2.982c-0.58,-1.082 -1.914,-1.475 -2.997,-0.894c-7.406,4.064 -15.691,8.41 -23.128,11.015c-6.842,2.385 -12.883,3.295 -16.523,1.004c-1.602,-1.787 -2.647,-6.681 0.471,-7.028Zm0.235,-4.05c0.079,-0.141 0.157,-0.266 0.251,-0.408c1.224,-2.087 2.809,-3.969 4.441,-5.397c1.506,-1.318 3.012,-2.213 4.268,-2.417c0.753,-0.125 1.381,0.11 1.773,0.895c2.62,5.35 -8.018,6.998 -10.733,7.327Z" style="fill-rule:nonzero;"/><path d="M602.459,10.855c6.621,-0.062 12.418,0.961 17.095,3.476c6.236,3.353 10.123,9.616 10.453,18.148c0.14,3.608 -0.941,8.075 -2.511,13.107c-1.569,5.032 -3.68,10.533 -5.8,15.653c-4.24,10.241 -8.531,18.976 -8.531,18.976c-0.376,0.797 -1.396,1.443 -2.277,1.443c-1.391,0 -2.519,-1.128 -2.519,-2.519c0,-0.334 0.123,-0.846 0.275,-1.144c0,-0 4.231,-8.616 8.398,-18.682c2.084,-5.033 4.148,-10.426 5.646,-15.227c1.497,-4.801 2.375,-9.106 2.286,-11.412c-0.28,-7.215 -2.984,-11.314 -7.806,-13.907c-4.821,-2.593 -12.118,-3.423 -21.074,-2.493c-17.911,1.86 -42.156,10.567 -66.21,22.332c-24.053,11.765 -47.991,26.571 -65.626,40.447c-8.817,6.939 -16.06,13.655 -20.917,19.54c-4.858,5.885 -7.093,10.95 -6.847,13.936c0.279,3.388 2.517,6.022 7.271,8.365c4.754,2.344 11.811,4.045 20.35,5.065c17.077,2.039 40.07,1.459 63.474,-0.357c46.81,-3.631 95.655,-12.214 103.166,-13.867c0.157,-0.037 0.415,-0.067 0.576,-0.067c1.39,0 2.518,1.129 2.518,2.519c0,1.134 -0.901,2.239 -2.012,2.467c-8.364,1.841 -56.712,10.312 -103.858,13.97c-23.573,1.828 -46.749,2.451 -64.462,0.336c-8.856,-1.057 -16.349,-2.772 -21.98,-5.548c-5.63,-2.776 -9.61,-6.967 -10.063,-12.47c-0.451,-5.476 2.762,-11.231 7.982,-17.555c5.221,-6.324 12.685,-13.208 21.688,-20.292c18.005,-14.168 42.161,-29.096 66.527,-41.014c24.367,-11.917 48.868,-20.84 67.903,-22.816c2.38,-0.248 4.678,-0.389 6.885,-0.41Z" style="fill-rule:nonzero;"/><path d="M646.204,86.102c-0.031,0.047 -10.811,16.209 -11.062,21.167c-0.329,6.119 10.388,-1.098 18.155,-7.108c-1.083,3.515 -1.208,7.029 1.741,8.504c1.821,0.91 4.347,-0.282 7.171,-2.934c2.401,-2.244 5.335,-5.68 8.332,-9.665c0.738,-0.973 0.534,-2.37 -0.439,-3.092c-0.973,-0.737 -2.354,-0.533 -3.091,0.44c-9.296,14.287 -14.626,15.043 -5.508,-0.079c0.534,-0.8 0.487,-1.898 -0.173,-2.667c-0.8,-0.926 -2.196,-1.02 -3.106,-0.22c-9.554,9.365 -17.807,13.362 -17.807,13.362c0.946,-3.703 9.443,-15.198 9.475,-15.245c0.674,-1.02 0.408,-2.4 -0.612,-3.075c-1.02,-0.675 -2.401,-0.408 -3.076,0.612Z" style="fill-rule:nonzero;"/><path d="M705.012,38.52c0.287,-0 0.577,0.056 0.855,0.173c1.13,0.487 1.648,1.774 1.177,2.903c-0.021,0.048 -1.285,3.008 -3.276,7.909c37.702,-1.5 73.403,0.476 73.572,0.486c1.208,0.063 2.149,1.098 2.087,2.322c-0.063,1.208 -1.099,2.15 -2.323,2.087c-0.162,-0.01 -36.998,-2.052 -75.141,-0.412c-10.855,27.216 -34.594,91.134 -25.344,107.942c0.597,1.067 0.204,2.417 -0.863,2.997c-1.082,0.596 -2.416,0.204 -3.012,-0.863c-9.866,-17.939 13.088,-81.182 24.394,-109.85c-19.268,0.989 -38.49,2.976 -53.124,6.698c-11.612,2.95 -15.833,3.624 -15.801,3.766c0.11,0.376 1.977,-0.628 4.864,-0.722c3.829,-0.141 8.614,-0.659 12.631,-1.397c3.688,-0.659 6.747,-0.502 6.685,-0.8c-0.22,-1.192 0.58,-2.354 1.773,-2.573c1.208,-0.22 2.353,0.58 2.573,1.773c0.518,2.824 -4.127,4.833 -10.231,5.947c-4.221,0.768 -9.257,1.318 -13.29,1.459c-4.942,0.157 -8.771,-0.596 -9.289,-2.605c-0.58,-2.259 4.205,-5.382 18.986,-9.132c15.418,-3.92 35.796,-5.945 56.012,-6.911c2.448,-6.093 4.029,-9.793 4.053,-9.847c0.353,-0.847 1.174,-1.35 2.032,-1.35Z" style="fill-rule:nonzero;"/><path d="M761.89,92.472c-0.078,0.016 -24.745,5.978 -34.222,10.811c0.957,-3.17 1.773,-7.516 -0.094,-12.098c-3.483,-8.489 -14.985,4.205 -23.066,14.797c1.146,-3.484 2.26,-6.873 3.358,-10.136c22.579,-18.124 35.87,-49.678 39.683,-68.366c1.506,-7.453 1.506,-13.165 -0.016,-15.613c-2.291,-3.687 -6.151,-2.824 -11.36,4.802c-7.956,11.643 -21.371,41.769 -40.279,101.662l0.016,0.015c-0.298,0.91 0.047,1.962 0.894,2.511c1.036,0.659 2.401,0.377 3.06,-0.643c0.062,-0.095 21.324,-32.967 23.615,-27.366c1.726,4.19 0.219,8.552 -0.675,11.11c-0.628,1.836 -1.067,3.091 -0.33,4.299c1.036,1.71 2.746,1.616 6.088,-0.424c7.516,-4.597 34.285,-11.062 34.364,-11.077c1.177,-0.283 1.914,-1.475 1.632,-2.652c-0.299,-1.193 -1.491,-1.915 -2.668,-1.632Zm-22.077,-73.308c2.558,-3.751 3.797,-5.225 3.97,-4.959c0.926,1.507 0.737,6.041 -0.565,12.381c-3.342,16.412 -14.232,43.071 -32.48,60.833c13.211,-38.364 22.877,-59.186 29.075,-68.255Z" style="fill-rule:nonzero;"/><path d="M764.481,97.319c-2.229,9.854 -3.201,18.531 -2.244,24.117c0.204,1.208 1.333,2.024 2.542,1.82c0.863,-0.141 1.522,-0.769 1.757,-1.553c0.659,-1.868 10.387,-29.468 13.51,-24.416c1.804,2.903 1.914,5.932 1.302,8.411c-3.609,3.028 -7.625,6.31 -6.919,7.942c0.617,1.426 1.694,2.024 3.075,1.899c0.926,-0.063 3.436,-1.039 4.346,-1.886c0.7,-0.651 1.428,-1.538 2.056,-2.62c0.659,-1.114 1.24,-2.464 1.647,-3.954c6.591,-4.363 16.711,-10.341 16.758,-10.356c1.052,-0.628 1.397,-1.978 0.785,-3.029c-0.628,-1.051 -1.977,-1.396 -3.028,-0.784c-0.047,0.031 -7.391,4.346 -13.997,9.132c-0.125,-2.291 -0.8,-4.707 -2.275,-7.077c-5.178,-8.379 -12.459,4.158 -17.056,14.404c0.455,-3.75 1.24,-7.939 2.291,-12.364c6.81,-7.579 51.341,-58.057 36.999,-69.166c-1.13,-0.879 -2.369,-1.334 -3.703,-1.412c-3.876,-0.204 -8.112,3.185 -12.317,8.897c-3.86,5.241 -7.861,12.553 -11.58,20.79c-5.445,12.051 -10.325,26.157 -13.353,38.663l-0.188,0.204c-0.597,0.659 -0.722,1.569 -0.408,2.338Zm7.076,-9.885c2.903,-9.87 6.732,-20.273 10.905,-29.499c3.594,-7.972 7.438,-15.017 11.11,-19.991c3.326,-4.519 6.307,-7.218 8.535,-7.108c0.408,0.031 0.832,0.188 1.24,0.502c8.96,6.936 -18.562,40.797 -31.79,56.096Z" style="fill-rule:nonzero;"/><path d="M800,108.4c0.061,-0.015 19.771,-6.488 11.19,-16.582c-2.06,-2.422 -4.546,-2.732 -7.065,-1.624c-1.939,0.848 -3.816,2.635 -5.403,4.931c-1.504,2.178 -2.773,4.831 -3.594,7.597c-1.87,6.286 -1.382,13.187 4.04,16.507c0.13,0.064 0.26,0.128 0.404,0.189c5.666,2.043 12.671,-0.656 19.905,-5.452c6.835,-4.518 10.95,-8.822 17.274,-14.715c0.892,-0.825 3.95,-4.297 3.125,-5.189c-0.829,-0.907 -2.218,-0.959 -3.125,-0.13c-3.729,3.476 -3.191,2.803 -3.622,3.704c-0.283,0.592 2.605,-1.726 0,0c-1.186,0.786 -6.449,5.901 -10.415,8.894c-4.754,3.587 -11.891,7.341 -13.18,7.86c-3.114,1.253 -5.937,1.692 -8.263,0.938c-1.992,-1.338 -4.208,-5.825 -1.271,-6.928Zm-0.767,-3.983c0.041,-0.156 0.086,-0.297 0.143,-0.457c0.673,-2.324 1.747,-4.539 2.977,-6.324c1.136,-1.648 2.377,-2.885 3.543,-3.391c0.7,-0.307 1.366,-0.233 1.939,0.431c3.855,4.542 -6.052,8.754 -8.602,9.741Z" style="fill-rule:nonzero;"/><path d="M828.014,106.683c1.206,-0.134 7.223,-5.868 12.734,-10.335c2.71,-2.192 5.456,-5.893 7.773,-7.997c2.702,0.167 5.442,0.165 7.729,0.005c-1.559,1.084 -3.751,2.619 -6.021,4.84c-8.762,8.628 -20.607,20.314 -19.857,24.409c0.385,2.034 1.876,2.936 4.787,2.387c5.527,-1.027 11.974,-3.21 17.819,-5.619c7.76,-3.206 14.599,-6.856 16.918,-8.738c0.946,-0.772 1.09,-2.162 0.318,-3.108c-0.772,-0.946 -2.162,-1.09 -3.108,-0.318c-2.052,1.665 -8.424,5.031 -15.797,8.069c-5.324,2.195 -11.095,4.187 -16.068,5.212c2.247,-3.539 11.21,-12.361 18.085,-19.142c3.239,-3.184 10.521,-8.59 9.204,-11.719c-0.579,-1.426 -1.693,-1.849 -3.372,-1.162c-1.16,0.489 -3.66,0.699 -6.554,0.664c1.288,-1.644 1.982,-3.116 1.735,-4.307c-0.509,-2.398 -3.294,-3.337 -9.494,-2.022c-4.813,1.015 -7.506,2.053 -8.658,3.05c-2.227,1.91 -1.829,3.613 0.391,5.091c0.944,0.621 2.491,1.12 4.339,1.502c0.506,0.117 1.048,0.208 1.605,0.3c-1.447,1.194 -2.702,3.479 -6.335,6.806c-3.638,3.332 -3.729,3.024 -6.09,5.617c-1.623,1.783 -4.665,3.352 -4.524,4.579c0.134,1.206 1.234,2.071 2.441,1.936Zm19.114,-22.817c-1.924,-0.17 -3.774,-0.425 -5.313,-0.748l-0.109,-0.015c1.024,-0.303 2.353,-0.642 4.034,-0.996c3.132,-0.661 4.219,-1.651 4.276,-1.374c0.077,0.359 -1.067,1.532 -2.888,3.133Z" style="fill-rule:nonzero;"/><path d="M907.096,30.186c0.286,0 0.576,0.056 0.855,0.174c1.129,0.486 1.647,1.773 1.176,2.903c-0.021,0.048 -1.284,3.008 -3.275,7.909c37.702,-1.5 73.402,0.475 73.571,0.485c1.208,0.063 2.15,1.099 2.087,2.323c-0.063,1.208 -1.098,2.149 -2.322,2.087c-0.163,-0.01 -36.999,-2.052 -75.142,-0.413c-10.855,27.216 -34.594,91.134 -25.343,107.943c0.596,1.067 0.204,2.416 -0.863,2.997c-1.083,0.596 -2.417,0.204 -3.013,-0.863c-9.866,-17.939 13.089,-81.182 24.395,-109.85c-19.269,0.989 -38.491,2.976 -53.125,6.697c-11.611,2.95 -15.832,3.625 -15.801,3.766c0.11,0.377 1.977,-0.627 4.864,-0.722c3.829,-0.141 8.615,-0.659 12.632,-1.396c3.687,-0.659 6.747,-0.502 6.684,-0.8c-0.22,-1.193 0.58,-2.354 1.773,-2.574c1.208,-0.219 2.354,0.581 2.573,1.774c0.518,2.824 -4.126,4.832 -10.23,5.946c-4.221,0.769 -9.258,1.318 -13.29,1.46c-4.943,0.157 -8.772,-0.597 -9.29,-2.605c-0.58,-2.26 4.206,-5.382 18.987,-9.132c15.417,-3.92 35.796,-5.945 56.011,-6.912c2.448,-6.092 4.03,-9.792 4.053,-9.846c0.354,-0.847 1.175,-1.351 2.033,-1.351Z" style="fill-rule:nonzero;"/></svg>