<?xml version="1.0" encoding="UTF-8" standalone="no"?>
<!DOCTYPE svg PUBLIC "-//W3C//DTD SVG 1.1//EN" "http://www.w3.org/Graphics/SVG/1.1/DTD/svg11.dtd"><svg width="100%" height="100%" viewBox="34.924 351.353 548.489 159.86"version="1.1" xmlns="http://www.w3.org/2000/svg" xmlns:xlink="http://www.w3.org/1999/xlink" xml:space="preserve" xmlns:serif="http://www.serif.com/" style="fill-rule:evenodd;clip-rule:evenodd;stroke-linejoin:round;stroke-miterlimit:2;">
    <g>
        <g>
            <path id="C" d="M191.458,78.458c5.883,-0.056 11.033,0.853 15.188,3.088c5.54,2.979 8.993,8.543 9.286,16.123c0.124,3.206 -0.836,7.174 -2.23,11.645c-1.395,4.47 -3.27,9.357 -5.153,13.906c-3.767,9.099 -7.579,16.859 -7.579,16.859c-0.335,0.707 -1.241,1.282 -2.024,1.282c-1.235,-0 -2.237,-1.003 -2.237,-2.238c-0,-0.297 0.109,-0.752 0.244,-1.017c0,0 3.759,-7.654 7.461,-16.597c1.852,-4.472 3.686,-9.262 5.016,-13.528c1.33,-4.265 2.11,-8.09 2.031,-10.139c-0.248,-6.409 -2.651,-10.052 -6.935,-12.355c-4.283,-2.304 -10.766,-3.041 -18.722,-2.215c-15.913,1.653 -37.453,9.388 -58.822,19.84c-21.37,10.452 -42.637,23.607 -58.304,35.935c-7.833,6.164 -14.268,12.13 -18.583,17.359c-4.316,5.229 -6.302,9.728 -6.083,12.381c0.247,3.01 2.236,5.35 6.459,7.432c4.224,2.082 10.493,3.593 18.08,4.499c15.172,1.812 35.599,1.296 56.392,-0.317c41.586,-3.226 84.981,-10.851 91.654,-12.319c0.139,-0.033 0.368,-0.06 0.511,-0.06c1.236,0 2.238,1.003 2.238,2.238c0,1.007 -0.801,1.989 -1.788,2.192c-7.431,1.635 -50.383,9.161 -92.269,12.411c-20.943,1.624 -41.533,2.177 -57.269,0.298c-7.868,-0.939 -14.525,-2.462 -19.527,-4.929c-5.003,-2.466 -8.539,-6.189 -8.941,-11.078c-0.4,-4.865 2.454,-9.978 7.092,-15.596c4.637,-5.619 11.269,-11.734 19.267,-18.028c15.997,-12.587 37.457,-25.85 59.105,-36.437c21.647,-10.588 43.415,-18.515 60.326,-20.271c2.114,-0.22 4.156,-0.345 6.116,-0.364Z" style="fill-rule:nonzero;" />
            <path id="a" d="M232.729,150.661c-3.471,-4.824 -8.545,-3.834 -12.755,-0.809c-1.965,1.408 -3.736,3.29 -4.977,5.158c-1.352,2.035 -2.119,4.182 -1.951,5.883c0.251,2.495 1.91,4.056 5.562,3.708c6.58,-0.655 12.323,-5.242 16.003,-9.019c-0.488,6.147 0.251,8.754 3.123,9.144c2.119,0.293 4.865,-1.296 9.145,-3.791c2.969,-1.715 6.747,-3.918 11.472,-6.19c0.976,-0.474 1.394,-1.659 0.92,-2.635c-0.474,-0.989 -1.659,-1.394 -2.634,-0.92c-4.865,2.342 -8.713,4.587 -11.738,6.343c-3.569,2.063 -5.855,3.402 -6.649,3.29c-0.419,-0.056 -0.084,-3.137 1.017,-11.236c0.098,-0.711 -0.209,-1.45 -0.836,-1.882c-0.892,-0.613 -2.119,-0.39 -2.746,0.502c-0,0.014 -0.962,1.422 -2.621,3.276c-0.042,-0.279 -0.153,-0.571 -0.335,-0.822Zm-1.84,3.108c-3.178,3.095 -7.695,6.413 -12.658,6.901c-0.878,0.097 -1.24,0.014 -1.268,-0.154c-0.07,-0.78 0.446,-2.007 1.324,-3.331c1.004,-1.506 2.412,-3.011 3.987,-4.141c2.523,-1.812 5.479,-2.565 7.249,-0.083c0.349,0.46 0.85,0.739 1.366,0.808Z" style="fill-rule:nonzero;" />
            <path id="rr" d="M256.471,157.654c-0.125,-0.515 4.043,-4.962 8.365,-9.563c1.979,-2.104 3.973,-4.223 5.673,-6.231l0.307,0.028c3.262,0.321 6.594,0.641 8.322,1.157c-0.139,0.209 -0.223,0.335 -0.306,0.474c-3.75,5.883 -8.406,13.187 -3.611,17.774c4.224,4.029 9.298,2.286 13.606,-2.217c1.965,-2.049 3.777,-4.725 5.213,-7.667c1.436,-2.927 2.509,-6.12 3.025,-9.214c0.084,-0.502 0.14,-1.004 0.195,-1.492c3.876,1.896 8.002,2.997 11.599,2.328c-0.168,0.223 -0.321,0.446 -0.502,0.683c-3.792,5.284 -8.978,12.505 -4.726,18.011c4.768,6.175 12.072,2.175 18.039,-2.44c1.517,-1.173 2.225,-1.969 3.438,-2.987c0.781,-0.669 1.506,-1.282 2.119,-1.77c0.85,-0.669 0.99,-1.91 0.32,-2.76c-0.669,-0.85 -1.909,-0.99 -2.76,-0.307c-0.641,0.516 -1.394,1.143 -2.216,1.84c-1.213,1.018 -2.579,2.189 -3.973,3.262c-4.475,3.457 -9.154,6.277 -11.858,2.764c-2.467,-3.204 1.728,-9.047 4.809,-13.327c1.087,-1.505 2.049,-2.857 2.649,-3.972c1.185,-2.161 1.254,-3.834 -0.656,-4.866c-0.752,-0.404 -1.714,-0.278 -2.327,0.363c-3.165,3.248 -8.853,1.631 -13.899,-1.227c-0.544,-5.478 -3.513,-9.869 -10.218,-10.971c-1.324,-0.209 -2.286,0.056 -2.941,0.739c-1.38,1.408 -0.516,3.861 1.909,6.468c1.757,1.882 4.392,4.099 7.375,6.008l0.014,0.014c-0,0.976 -0.098,1.98 -0.265,3.012c-0.446,2.718 -1.394,5.534 -2.663,8.113c-1.268,2.579 -2.843,4.921 -4.544,6.691c-2.76,2.899 -5.827,4.21 -8.058,2.077c-2.467,-2.356 1.227,-8.155 4.21,-12.825l0.99,-1.561c1.06,-1.687 0.572,-2.983 -1.045,-4.001c-1.617,-1.004 -5.061,-1.478 -8.741,-1.868c1.366,-2.035 2.063,-3.764 1.631,-4.991c-0.739,-2.049 -3.304,-2.537 -8.615,-0.627c-5.771,2.077 -7.542,4.043 -6.845,5.939c0.558,1.575 3.081,2.328 6.287,2.802c-1.212,1.31 -2.523,2.704 -3.819,4.084c-5.06,5.395 -9.967,10.622 -9.298,13.215c0.265,1.06 1.338,1.687 2.384,1.422c1.045,-0.265 1.672,-1.338 1.407,-2.384Zm12.533,-19.892c-3.179,-0.307 -5.813,-0.558 -5.813,-0.558c-0.126,-0.376 1.394,0.168 4.488,-0.948c2.677,-0.962 3.513,-1.965 3.597,-1.728c0.111,0.32 -0.809,1.533 -2.272,3.234Zm23.057,-5.033c-1.143,-0.934 -2.161,-1.854 -2.97,-2.704c1.297,0.641 2.273,1.561 2.97,2.704Z" style="fill-rule:nonzero;" />
            <path id="i" d="M338.688,132.761c0.913,-0.019 1.741,0.598 1.961,1.525c0.237,1.06 -0.418,2.105 -1.478,2.356c-3.053,0.697 -5.813,6.482 -5.813,6.496c-0.474,0.976 -1.645,1.38 -2.621,0.906c-0.975,-0.459 -1.393,-1.63 -0.919,-2.606c0.014,-0.028 3.568,-7.5 8.475,-8.629c0.132,-0.03 0.265,-0.046 0.395,-0.048Zm-9.622,14.199c0.44,0.003 0.88,0.153 1.239,0.458c0.837,0.697 0.948,1.938 0.251,2.774c-2.314,2.76 -3.861,5.2 -4.516,7.123c-0.307,0.879 -0.404,1.562 -0.293,2.05c0.07,0.251 0.223,0.446 0.502,0.571c0.404,0.195 1.017,0.293 1.826,0.293c2.342,-0 6.064,-1.101 9.87,-2.551c5.715,-2.189 11.431,-5.088 13.117,-6.287c0.878,-0.627 2.105,-0.418 2.733,0.46c0.627,0.878 0.418,2.105 -0.46,2.732c-1.868,1.339 -8.002,4.475 -13.996,6.761c-4.182,1.603 -8.392,2.83 -11.264,2.83c-1.38,-0 -2.537,-0.237 -3.485,-0.683c-1.45,-0.683 -2.328,-1.784 -2.663,-3.234c-0.292,-1.227 -0.139,-2.649 0.391,-4.21c0.822,-2.37 2.607,-5.242 5.227,-8.378c0.392,-0.471 0.956,-0.712 1.521,-0.709Z" style="fill-rule:nonzero;" />
            <path id="e" d="M354.075,155.679c0.056,-0 18.443,-1.27 13.258,-11.837c-1.245,-2.535 -3.318,-3.345 -5.73,-2.941c-1.854,0.307 -3.861,1.436 -5.729,3.067c-1.771,1.547 -3.444,3.555 -4.754,5.757c-2.983,5.005 -4.07,11.055 -0.125,15.097c0.097,0.084 0.195,0.168 0.306,0.251c4.433,2.997 11.055,2.203 18.332,-0.348c6.872,-2.398 14.4,-6.343 21.133,-10.037c0.948,-0.516 1.296,-1.701 0.78,-2.649c-0.515,-0.962 -1.7,-1.31 -2.662,-0.794c-6.58,3.61 -13.94,7.472 -20.548,9.786c-6.078,2.119 -11.445,2.927 -14.679,0.892c-1.423,-1.588 -2.352,-5.936 0.418,-6.244Zm0.209,-3.598c0.07,-0.125 0.14,-0.237 0.224,-0.362c1.087,-1.854 2.495,-3.527 3.945,-4.796c1.338,-1.171 2.676,-1.965 3.791,-2.147c0.669,-0.111 1.227,0.098 1.576,0.795c2.328,4.754 -7.124,6.217 -9.536,6.51Z" style="fill-rule:nonzero;" />
            <path id="C1" serif:id="C" d="M585.075,78.458c5.882,-0.056 11.032,0.853 15.187,3.088c5.54,2.979 8.993,8.543 9.286,16.123c0.125,3.206 -0.836,7.174 -2.23,11.645c-1.395,4.47 -3.27,9.357 -5.153,13.906c-3.767,9.099 -7.579,16.859 -7.579,16.859c-0.334,0.707 -1.241,1.282 -2.023,1.282c-1.235,-0 -2.238,-1.003 -2.238,-2.238c0,-0.297 0.11,-0.752 0.244,-1.017c0,0 3.759,-7.654 7.462,-16.597c1.851,-4.472 3.685,-9.262 5.015,-13.528c1.33,-4.265 2.11,-8.09 2.031,-10.139c-0.248,-6.409 -2.651,-10.052 -6.935,-12.355c-4.283,-2.304 -10.766,-3.041 -18.722,-2.215c-15.913,1.653 -37.452,9.388 -58.822,19.84c-21.37,10.452 -42.637,23.607 -58.304,35.935c-7.833,6.164 -14.268,12.13 -18.583,17.359c-4.316,5.229 -6.302,9.728 -6.083,12.381c0.247,3.01 2.236,5.35 6.46,7.432c4.223,2.082 10.493,3.593 18.079,4.499c15.172,1.812 35.599,1.296 56.392,-0.317c41.586,-3.226 84.981,-10.851 91.654,-12.319c0.139,-0.033 0.368,-0.06 0.512,-0.06c1.235,0 2.237,1.003 2.237,2.238c0,1.007 -0.801,1.989 -1.788,2.192c-7.431,1.635 -50.383,9.161 -92.269,12.411c-20.943,1.624 -41.533,2.177 -57.269,0.298c-7.868,-0.939 -14.525,-2.462 -19.527,-4.929c-5.003,-2.466 -8.539,-6.189 -8.941,-11.078c-0.4,-4.865 2.454,-9.978 7.092,-15.596c4.638,-5.619 11.269,-11.734 19.267,-18.028c15.997,-12.587 37.457,-25.85 59.105,-36.437c21.647,-10.588 43.415,-18.515 60.326,-20.271c2.114,-0.22 4.156,-0.345 6.117,-0.364Z" style="fill-rule:nonzero;" />
            <path id="t" d="M657.408,102.63l0,-0.001c0.239,0 0.482,0.045 0.715,0.137c0.015,0.006 0.029,0.011 0.043,0.017c0.001,0.001 0.001,0.001 0.002,0.001c0.001,0 0.002,0.001 0.003,0.001c0.144,0.06 0.284,0.139 0.415,0.236c0.241,0.183 0.426,0.411 0.556,0.662c0.002,0.004 0.004,0.008 0.006,0.012c0.024,0.047 0.046,0.095 0.066,0.144c0.007,0.016 0.014,0.033 0.02,0.049c0.014,0.036 0.027,0.072 0.038,0.109c0.01,0.031 0.019,0.062 0.027,0.094c0.007,0.023 0.013,0.047 0.018,0.071c0.01,0.045 0.018,0.09 0.025,0.135c0.002,0.011 0.004,0.022 0.005,0.034c0.008,0.056 0.013,0.112 0.016,0.169c-0,0.002 -0,0.004 -0,0.006c0.013,0.284 -0.033,0.576 -0.15,0.857c-0.019,0.043 -1.141,2.672 -2.91,7.027c33.495,-1.333 65.212,0.422 65.362,0.431c1.073,0.056 1.91,0.976 1.854,2.063c-0.056,1.073 -0.976,1.91 -2.063,1.854c-0.144,-0.009 -32.87,-1.823 -66.757,-0.366c-9.644,24.179 -30.734,80.965 -22.516,95.898c0.53,0.962 0.181,2.147 -0.766,2.676c-0.962,0.516 -2.147,0.168 -2.677,-0.78c-6.388,-11.616 2.719,-44.629 12.017,-71.54c-6.135,11.957 -12.269,21.891 -16.185,21.174c-3.443,-0.641 -3.234,-4.168 -2.035,-7.751c-15.966,15.832 -21.458,12.482 -6.329,-12.462c0.599,-0.906 1.826,-1.157 2.732,-0.558c0.906,0.614 1.143,1.826 0.544,2.733c-0.028,0.041 -8.243,12.357 -8.41,15.647c-0,-0 15.756,-13.933 15.812,-13.975c0.822,-0.711 2.049,-0.613 2.76,0.209c0.586,0.669 0.628,1.632 0.167,2.342c-0.292,0.474 -6.064,9.675 -4.53,9.954c2.969,0.543 13.271,-21.315 21.119,-37.945c0.88,-1.862 1.722,-3.64 2.533,-5.342c-16.621,0.903 -33.093,2.66 -45.719,5.871c-10.316,2.635 -14.066,3.22 -14.038,3.346c0.097,0.348 1.756,-0.558 4.335,-0.641c3.388,-0.126 7.639,-0.572 11.222,-1.227c3.262,-0.599 5.98,-0.46 5.925,-0.725c-0.195,-1.059 0.515,-2.077 1.575,-2.272c1.073,-0.195 2.091,0.502 2.286,1.575c0.46,2.495 -3.666,4.28 -9.089,5.269c-3.75,0.697 -8.225,1.171 -11.807,1.297c-4.391,0.153 -7.793,-0.516 -8.253,-2.314c-0.516,-2.008 3.736,-4.768 16.868,-8.113c13.408,-3.409 31.039,-5.205 48.624,-6.085c2.07,-4.26 3.765,-7.537 4.871,-9.065c0.36,-0.593 1.003,-0.938 1.673,-0.938Z" style="fill-rule:nonzero;" />
            <path id="h" d="M702.903,150.968c-0.07,0.014 -21.983,5.311 -30.403,9.605c0.85,-2.816 1.575,-6.678 -0.084,-10.748c-3.095,-7.542 -13.313,3.736 -20.492,13.145c1.018,-3.094 2.007,-6.105 2.983,-9.005c20.06,-16.101 31.867,-44.135 35.255,-60.737c1.338,-6.622 1.338,-11.696 -0.014,-13.871c-2.035,-3.276 -5.465,-2.509 -10.093,4.266c-7.067,10.344 -18.986,37.109 -35.784,90.318l0.014,0.014c-0.265,0.809 0.042,1.743 0.794,2.231c0.92,0.585 2.133,0.334 2.719,-0.572c0.056,-0.084 18.944,-29.288 20.98,-24.312c1.533,3.722 0.195,7.598 -0.6,9.87c-0.557,1.631 -0.948,2.746 -0.292,3.82c0.92,1.519 2.439,1.436 5.408,-0.377c6.678,-4.084 30.46,-9.828 30.529,-9.842c1.046,-0.25 1.701,-1.31 1.45,-2.355c-0.265,-1.06 -1.324,-1.701 -2.37,-1.45Zm-19.614,-65.128c2.273,-3.332 3.374,-4.643 3.527,-4.406c0.823,1.339 0.655,5.367 -0.502,10.999c-2.969,14.582 -12.643,38.266 -28.856,54.046c11.738,-34.083 20.325,-52.582 25.831,-60.639Z" style="fill-rule:nonzero;" />
            <path id="b" d="M700.69,155.274c-1.979,8.754 -2.844,16.463 -1.993,21.426c0.181,1.073 1.185,1.798 2.258,1.617c0.767,-0.125 1.352,-0.683 1.561,-1.38c0.586,-1.659 9.229,-26.18 12.003,-21.691c1.603,2.579 1.701,5.269 1.157,7.472c-3.206,2.69 -6.775,5.606 -6.148,7.056c0.549,1.267 1.506,1.798 2.733,1.687c0.822,-0.056 3.052,-0.923 3.861,-1.675c0.621,-0.579 1.269,-1.367 1.826,-2.328c0.586,-0.99 1.101,-2.189 1.464,-3.513c5.855,-3.876 14.846,-9.187 14.888,-9.201c0.934,-0.557 1.241,-1.756 0.697,-2.69c-0.558,-0.934 -1.756,-1.241 -2.69,-0.697c-0.042,0.028 -6.566,3.861 -12.435,8.113c-0.112,-2.035 -0.711,-4.182 -2.021,-6.287c-4.601,-7.444 -11.069,3.694 -15.153,12.797c0.404,-3.332 1.101,-7.054 2.035,-10.985c6.05,-6.733 45.612,-51.578 32.871,-61.448c-1.004,-0.781 -2.105,-1.185 -3.29,-1.255c-3.443,-0.181 -7.207,2.83 -10.943,7.904c-3.429,4.656 -6.984,11.153 -10.288,18.471c-4.837,10.706 -9.173,23.238 -11.863,34.349l-0.167,0.181c-0.53,0.585 -0.642,1.394 -0.363,2.077Zm6.287,-8.782c2.579,-8.769 5.981,-18.011 9.689,-26.208c3.192,-7.082 6.607,-13.341 9.869,-17.76c2.956,-4.014 5.604,-6.412 7.584,-6.314c0.362,0.027 0.739,0.167 1.101,0.446c7.96,6.161 -16.491,36.244 -28.243,49.836Z" style="fill-rule:nonzero;" />
            <path id="e1" serif:id="e" d="M735.514,155.679c0.056,-0 18.443,-1.27 13.257,-11.837c-1.244,-2.535 -3.318,-3.345 -5.729,-2.941c-1.854,0.307 -3.862,1.436 -5.73,3.067c-1.77,1.547 -3.443,3.555 -4.753,5.757c-2.984,5.005 -4.071,11.055 -0.126,15.097c0.098,0.084 0.195,0.168 0.307,0.251c4.433,2.997 11.054,2.203 18.331,-0.348c6.873,-2.398 14.4,-6.343 21.133,-10.037c0.948,-0.516 1.297,-1.701 0.781,-2.649c-0.516,-0.962 -1.701,-1.31 -2.663,-0.794c-6.579,3.61 -13.94,7.472 -20.547,9.786c-6.078,2.119 -11.445,2.927 -14.679,0.892c-1.424,-1.588 -2.352,-5.936 0.418,-6.244Zm0.209,-3.598c0.07,-0.125 0.139,-0.237 0.223,-0.362c1.087,-1.854 2.495,-3.527 3.945,-4.796c1.338,-1.171 2.677,-1.965 3.792,-2.147c0.669,-0.111 1.227,0.098 1.575,0.795c2.328,4.754 -7.123,6.217 -9.535,6.51Z" style="fill-rule:nonzero;" />
            <path id="r" d="M769.699,158.118c-0.126,-0.515 4.056,-4.962 8.364,-9.563c2.119,-2.258 4.266,-4.544 6.05,-6.677c2.398,-0.181 4.809,-0.516 6.803,-0.934c-1.241,1.143 -2.983,2.76 -4.712,4.991c-6.663,8.656 -15.669,20.38 -14.512,23.893c0.586,1.743 2.008,2.356 4.503,1.52c4.74,-1.576 10.148,-4.28 15,-7.11c6.44,-3.764 12.016,-7.806 13.828,-9.744c0.739,-0.795 0.697,-2.035 -0.097,-2.774c-0.795,-0.739 -2.036,-0.697 -2.774,0.097c-1.604,1.715 -6.803,5.451 -12.923,9.02c-4.419,2.579 -9.256,5.032 -13.508,6.538c1.547,-3.388 8.364,-12.24 13.592,-19.043c2.463,-3.195 8.216,-8.837 6.677,-11.431c-0.683,-1.184 -1.715,-1.421 -3.109,-0.613c-0.962,0.572 -3.136,1.059 -5.687,1.38c0.934,-1.603 1.366,-2.983 1.003,-4.001c-0.738,-2.049 -3.303,-2.537 -8.601,-0.627c-4.112,1.478 -6.356,2.718 -7.249,3.736c-1.728,1.952 -1.171,3.401 0.962,4.433c0.906,0.432 2.328,0.683 4.001,0.794c0.46,0.042 0.948,0.056 1.45,0.07c-1.129,1.227 -2.342,2.509 -3.555,3.792c-5.06,5.395 -9.967,10.622 -9.298,13.229c0.265,1.046 1.338,1.673 2.384,1.408c1.045,-0.265 1.687,-1.338 1.408,-2.384Zm12.644,-20.018c-1.715,0.084 -3.374,0.084 -4.768,-0.014l-0.097,0c0.864,-0.39 1.993,-0.85 3.429,-1.366c2.676,-0.962 3.513,-1.965 3.596,-1.728c0.112,0.306 -0.752,1.477 -2.16,3.108Z" style="fill-rule:nonzero;" />
            <path id="t1" serif:id="t" d="M821.903,103.036c0.254,-0 0.512,0.049 0.759,0.154c1.004,0.432 1.464,1.575 1.046,2.579c-0.019,0.043 -1.142,2.672 -2.91,7.026c33.495,-1.333 65.211,0.423 65.362,0.432c1.073,0.056 1.909,0.976 1.854,2.063c-0.056,1.073 -0.976,1.91 -2.063,1.854c-0.145,-0.009 -32.87,-1.823 -66.758,-0.366c-9.643,24.179 -30.734,80.965 -22.515,95.898c0.529,0.948 0.181,2.147 -0.767,2.662c-0.962,0.53 -2.147,0.182 -2.676,-0.766c-8.765,-15.938 11.628,-72.124 21.672,-97.593c-17.118,0.879 -34.196,2.644 -47.197,5.95c-10.315,2.621 -14.065,3.22 -14.037,3.346c0.097,0.334 1.756,-0.558 4.321,-0.641c3.401,-0.126 7.653,-0.586 11.222,-1.241c3.276,-0.586 5.994,-0.446 5.938,-0.711c-0.195,-1.059 0.516,-2.091 1.575,-2.286c1.074,-0.195 2.092,0.516 2.287,1.575c0.46,2.509 -3.667,4.294 -9.089,5.283c-3.75,0.683 -8.225,1.171 -11.807,1.297c-4.392,0.139 -7.793,-0.53 -8.253,-2.314c-0.516,-2.008 3.736,-4.782 16.868,-8.114c13.697,-3.482 31.801,-5.281 49.761,-6.14c2.175,-5.412 3.58,-8.7 3.601,-8.748c0.314,-0.752 1.043,-1.199 1.806,-1.199Z" style="fill-rule:nonzero;" />
        </g>
    </g>
</svg>