<?xml version="1.0" encoding="UTF-8" standalone="no"?><!DOCTYPE svg PUBLIC "-//W3C//DTD SVG 1.1//EN" "http://www.w3.org/Graphics/SVG/1.1/DTD/svg11.dtd"><svg width="100%" height="100%" viewBox="0 0 2286 667" version="1.1" xmlns="http://www.w3.org/2000/svg" xmlns:xlink="http://www.w3.org/1999/xlink" xml:space="preserve" xmlns:serif="http://www.serif.com/" style="fill-rule:evenodd;clip-rule:evenodd;stroke-linejoin:round;stroke-miterlimit:2;"><path d="M462.017,160.516c17.268,-0.163 32.385,2.505 44.582,9.064c16.263,8.747 26.4,25.08 27.261,47.331c0.364,9.409 -2.455,21.059 -6.548,34.182c-4.093,13.123 -9.597,27.469 -15.126,40.823c-11.057,26.708 -22.249,49.488 -22.249,49.488c-0.981,2.077 -3.642,3.763 -5.939,3.763c-3.625,-0 -6.568,-2.943 -6.568,-6.569c0,-0.871 0.321,-2.208 0.717,-2.985c0,0 11.034,-22.469 21.903,-48.722c5.434,-13.126 10.817,-27.189 14.722,-39.709c3.906,-12.521 6.195,-23.75 5.962,-29.763c-0.729,-18.816 -7.782,-29.508 -20.356,-36.27c-12.574,-6.762 -31.604,-8.925 -54.96,-6.5c-46.711,4.85 -109.94,27.558 -172.671,58.24c-62.731,30.682 -125.158,69.296 -171.149,105.485c-22.995,18.094 -41.883,35.61 -54.551,50.959c-12.669,15.348 -18.498,28.557 -17.858,36.344c0.728,8.836 6.565,15.704 18.963,21.816c12.398,6.113 30.802,10.549 53.071,13.208c44.538,5.318 104.501,3.804 165.539,-0.931c122.076,-9.47 249.461,-31.853 269.048,-36.163c0.409,-0.097 1.082,-0.175 1.502,-0.175c3.626,0 6.569,2.943 6.569,6.569c-0,2.957 -2.351,5.84 -5.248,6.434c-21.814,4.801 -147.901,26.893 -270.855,36.432c-61.478,4.769 -121.92,6.392 -168.112,0.877c-23.096,-2.757 -42.638,-7.23 -57.323,-14.47c-14.684,-7.239 -25.064,-18.168 -26.245,-32.52c-1.175,-14.281 7.204,-29.289 20.818,-45.783c13.614,-16.494 33.081,-34.445 56.56,-52.92c46.957,-36.95 109.954,-75.882 173.499,-106.962c63.546,-31.08 127.444,-54.351 177.087,-59.505c6.205,-0.645 12.2,-1.014 17.955,-1.068Z" style="fill-rule:nonzero;"/><path d="M553.59,367.461c-8.233,-15.168 -20.33,-12.089 -30.382,-2.612c-4.694,4.41 -8.926,10.311 -11.896,16.17c-3.237,6.384 -5.08,13.122 -4.694,18.465c0.579,7.838 4.519,12.751 13.224,11.677c15.681,-2.02 29.398,-16.391 38.195,-28.234c-1.209,19.304 0.532,27.495 7.37,28.738c5.046,0.931 11.601,-5.04 21.816,-12.852c7.062,-5.401 11.312,-11.268 22.588,-18.378c2.328,-1.482 8.125,-5.201 7.003,-8.269c-1.121,-3.111 -3.941,-4.387 -6.269,-2.904c-11.609,7.327 -20.792,14.354 -28.013,19.853c-8.518,6.459 -13.974,10.649 -15.867,10.294c-0.995,-0.178 -0.175,-9.851 2.51,-35.282c0.238,-2.232 -0.487,-4.554 -1.979,-5.915c-2.121,-1.931 -5.045,-1.238 -6.546,1.56c-0,0.044 -2.303,4.461 -6.269,10.274c-0.097,-0.876 -0.361,-1.796 -0.791,-2.585Zm-4.407,9.753c-7.596,9.701 -18.381,20.095 -30.209,21.599c-2.092,0.301 -2.955,0.036 -3.021,-0.489c-0.16,-2.452 1.078,-6.302 3.181,-10.456c2.402,-4.723 5.768,-9.443 9.529,-12.98c6.025,-5.677 13.072,-8.025 17.271,-0.221c0.827,1.446 2.02,2.325 3.249,2.547Zm42.676,15.936c-0.178,-1.039 10.955,-8.66 22.427,-16.549c5.641,-3.872 11.357,-7.791 16.164,-11.502c5.813,0.254 11.696,0.213 16.593,-0.098c-3.26,1.917 -7.842,4.632 -12.538,8.549c-18.117,15.211 -42.606,35.816 -40.668,42.968c0.99,3.551 4.264,5.109 10.469,4.109c11.783,-1.873 25.449,-5.781 37.802,-10.075c16.403,-5.715 28.977,-14.641 30.827,-17.402c4.817,-7.187 11.751,-11.495 10.017,-13.139c-1.734,-1.644 -14.313,8.22 -16.282,9.584c-4.27,2.941 -12.889,8.402 -28.473,13.817c-11.253,3.914 -23.483,7.477 -34.076,9.338c4.539,-6.221 23.071,-21.775 37.287,-33.73c6.697,-5.615 21.897,-15.169 18.818,-20.624c-1.359,-2.487 -3.784,-3.212 -7.333,-1.987c-2.452,0.872 -7.802,1.273 -14.017,1.252c2.633,-2.893 4.005,-5.478 3.378,-7.557c-1.285,-4.188 -7.339,-5.792 -20.545,-3.407c-10.251,1.842 -15.949,3.695 -18.341,5.455c-4.629,3.372 -3.636,6.344 1.247,8.899c2.077,1.074 5.438,1.925 9.436,2.567c1.097,0.198 2.267,0.349 3.472,0.504c-3.013,2.108 -6.239,4.305 -9.466,6.501c-13.474,9.249 -23.412,17.589 -25.557,23.47c-1.317,3.613 -1.989,4.068 0.605,3.354c2.448,-0.674 9.173,-2.185 8.754,-4.297Zm35.24,-35.876c-4.146,-0.272 -8.137,-0.693 -11.468,-1.237l-0.235,-0.025c2.174,-0.543 5.001,-1.154 8.58,-1.797c6.672,-1.199 8.926,-2.946 9.07,-2.462c0.195,0.627 -2.167,2.694 -5.947,5.521Zm47.974,34.898c0.841,-0.629 9.543,-7.505 20.779,-15.209c5.526,-3.781 11.124,-7.608 15.843,-11.241c5.57,0.344 11.217,0.394 15.924,0.159c-3.183,1.865 -7.659,4.507 -12.278,8.347c-17.825,14.917 -41.92,35.124 -40.268,42.3c0.846,3.563 3.942,5.171 9.925,4.268c11.361,-1.689 24.586,-5.381 36.564,-9.48c15.904,-5.456 29.899,-11.705 34.627,-14.951c1.928,-1.332 2.189,-3.76 0.573,-5.429c-1.616,-1.67 -4.484,-1.949 -6.412,-0.617c-4.183,2.872 -17.223,8.634 -32.333,13.803c-10.912,3.736 -22.749,7.106 -32.967,8.801c4.535,-6.145 22.769,-21.398 36.755,-33.123c6.589,-5.505 21.45,-14.816 18.654,-20.314c-1.231,-2.506 -3.537,-3.267 -6.977,-2.098c-2.378,0.833 -7.523,1.15 -13.486,1.033c2.61,-2.85 4.002,-5.411 3.46,-7.498c-1.11,-4.204 -6.873,-5.9 -19.613,-3.722c-9.889,1.681 -15.411,3.444 -17.757,5.166c-4.539,3.297 -3.673,6.282 0.939,8.91c1.961,1.105 5.161,2.007 8.979,2.711c1.046,0.215 2.165,0.384 3.316,0.557c-2.951,2.06 -6.111,4.204 -9.271,6.349c-11.68,7.994 -23.092,20.477 -19.046,16.486c9.129,-9.003 -0.905,1.169 -1.365,1.775c-1.291,1.7 -7.274,8.438 -4.792,8.227c2.483,-0.212 0.984,1.699 10.227,-5.21Zm33.634,-34.321c-3.97,-0.335 -7.787,-0.818 -10.967,-1.413l-0.225,-0.028c2.102,-0.509 4.832,-1.076 8.285,-1.663c6.436,-1.094 8.65,-2.805 8.774,-2.32c0.169,0.63 -2.157,2.658 -5.867,5.424Zm95.125,-33.757c2.364,-0.049 4.508,1.55 5.076,3.95c0.614,2.743 -1.082,5.45 -3.825,6.1c-7.905,1.804 -15.051,16.782 -15.051,16.819c-1.227,2.526 -4.259,3.573 -6.785,2.345c-2.527,-1.19 -3.609,-4.222 -2.382,-6.749c0.036,-0.072 9.239,-19.417 21.944,-22.341c0.342,-0.076 0.685,-0.117 1.023,-0.124Zm-24.912,36.764c1.138,0.006 2.276,0.395 3.208,1.185c2.166,1.804 2.454,5.017 0.65,7.182c-2.902,3.462 -5.339,6.728 -7.272,9.743c-2.059,3.209 -3.547,6.132 -4.422,8.7c-0.794,2.274 -1.047,4.042 -0.758,5.305c0.181,0.65 0.577,1.156 1.299,1.48c1.047,0.506 2.635,0.758 4.728,0.758c6.064,0 15.7,-2.851 25.553,-6.604c14.798,-5.667 29.596,-13.174 33.963,-16.278c2.274,-1.624 5.45,-1.083 7.074,1.191c1.624,2.274 1.083,5.45 -1.191,7.074c-2.55,1.827 -8.172,4.949 -15.192,8.36c-6.293,3.057 -13.709,6.347 -21.044,9.145c-10.828,4.15 -21.728,7.326 -29.163,7.326c-3.573,0 -6.569,-0.613 -9.023,-1.768c-3.754,-1.769 -6.027,-4.62 -6.893,-8.374c-0.758,-3.176 -0.361,-6.857 1.011,-10.899c2.129,-6.136 6.749,-13.571 13.534,-21.692c1.015,-1.218 2.476,-1.842 3.938,-1.834Zm82.239,17.78c0.144,0 47.75,-3.287 34.324,-30.645c-3.222,-6.564 -8.59,-8.662 -14.834,-7.615c-4.8,0.794 -9.998,3.717 -14.834,7.94c-4.583,4.006 -8.915,9.204 -12.307,14.906c-7.724,12.957 -10.539,28.621 -0.325,39.088c0.253,0.216 0.505,0.433 0.794,0.649c11.477,7.76 28.621,5.703 47.461,-0.902c17.793,-6.208 37.283,-16.422 54.715,-25.986c2.455,-1.335 3.357,-4.403 2.021,-6.858c-1.335,-2.49 -4.403,-3.392 -6.893,-2.057c-17.036,9.348 -36.092,19.345 -53.2,25.337c-15.736,5.486 -29.631,7.579 -38.004,2.31c-3.686,-4.111 -6.09,-15.369 1.082,-16.167Zm0.542,-9.314c0.18,-0.325 0.361,-0.614 0.577,-0.939c2.815,-4.8 6.461,-9.131 10.214,-12.415c3.465,-3.032 6.93,-5.089 9.817,-5.558c1.733,-0.289 3.176,0.252 4.078,2.057c6.028,12.307 -18.442,16.097 -24.686,16.855Z" style="fill-rule:nonzero;"/><path d="M1396.34,159.54c15.23,-0.144 28.564,2.21 39.321,7.995c14.343,7.714 23.284,22.12 24.044,41.745c0.321,8.298 -2.166,18.574 -5.776,30.148c-3.61,11.574 -8.464,24.227 -13.341,36.005c-9.752,23.556 -19.623,43.648 -19.623,43.648c-0.865,1.832 -3.212,3.318 -5.238,3.318c-3.198,0 -5.793,-2.595 -5.793,-5.793c0,-0.768 0.284,-1.948 0.633,-2.632c-0,-0 9.731,-19.818 19.317,-42.973c4.793,-11.577 9.541,-23.98 12.986,-35.023c3.444,-11.043 5.463,-20.947 5.258,-26.25c-0.643,-16.595 -6.864,-26.025 -17.954,-31.99c-11.09,-5.964 -27.875,-7.872 -48.474,-5.733c-41.199,4.278 -96.967,24.306 -152.295,51.367c-55.328,27.061 -110.388,61.118 -150.951,93.036c-20.281,15.959 -36.941,31.408 -48.114,44.945c-11.173,13.537 -16.315,25.187 -15.75,32.055c0.642,7.794 5.79,13.851 16.725,19.242c10.935,5.391 27.167,9.304 46.808,11.649c39.282,4.69 92.169,3.355 146.004,-0.821c107.669,-8.352 220.022,-28.094 237.298,-31.896c0.361,-0.084 0.954,-0.153 1.325,-0.153c3.198,-0 5.793,2.595 5.793,5.793c0,2.608 -2.074,5.151 -4.629,5.675c-19.239,4.234 -130.446,23.719 -238.891,32.132c-54.223,4.206 -107.532,5.638 -148.273,0.774c-20.371,-2.432 -37.607,-6.377 -50.558,-12.762c-12.951,-6.386 -22.106,-16.024 -23.148,-28.683c-1.037,-12.595 6.354,-25.832 18.361,-40.379c12.007,-14.548 29.177,-30.381 49.885,-46.675c41.416,-32.589 96.979,-66.927 153.025,-94.339c56.047,-27.413 112.404,-47.937 156.189,-52.483c5.473,-0.568 10.76,-0.894 15.836,-0.942Z" style="fill-rule:nonzero;"/><path d="M1496.97,332.621c-0.072,0.108 -24.868,37.283 -25.445,48.688c-0.758,14.076 23.893,-2.526 41.758,-16.35c-2.49,8.085 -2.779,16.17 4.006,19.562c4.187,2.094 9.998,-0.649 16.495,-6.749c5.522,-5.161 12.271,-13.065 19.164,-22.233c1.697,-2.237 1.228,-5.449 -1.01,-7.11c-2.238,-1.696 -5.414,-1.227 -7.11,1.011c-21.382,32.864 -33.643,34.601 -12.669,-0.18c1.228,-1.841 1.119,-4.368 -0.397,-6.136c-1.84,-2.13 -5.052,-2.346 -7.146,-0.506c-21.975,21.54 -40.958,30.735 -40.958,30.735c2.175,-8.518 21.721,-34.957 21.793,-35.066c1.552,-2.346 0.939,-5.522 -1.407,-7.074c-2.346,-1.552 -5.522,-0.938 -7.074,1.408Z" style="fill-rule:nonzero;"/><path d="M1632.24,223.174c0.658,-0 1.325,0.128 1.966,0.399c2.599,1.119 3.79,4.079 2.707,6.677c-0.049,0.111 -2.955,6.919 -7.535,18.192c86.721,-3.451 168.838,1.094 169.227,1.117c2.779,0.145 4.945,2.527 4.8,5.342c-0.144,2.779 -2.526,4.945 -5.341,4.8c-0.374,-0.023 -85.103,-4.72 -172.839,-0.948c-24.968,62.602 -79.573,209.624 -58.295,248.287c1.372,2.454 0.47,5.558 -1.985,6.893c-2.49,1.372 -5.557,0.47 -6.929,-1.985c-22.694,-41.264 30.106,-186.732 56.112,-252.674c-44.321,2.275 -88.536,6.846 -122.196,15.405c-26.708,6.786 -36.417,8.338 -36.345,8.663c0.253,0.866 4.548,-1.444 11.189,-1.661c8.806,-0.325 19.814,-1.516 29.054,-3.212c8.481,-1.516 15.519,-1.155 15.375,-1.841c-0.506,-2.743 1.335,-5.414 4.078,-5.919c2.779,-0.505 5.414,1.336 5.919,4.079c1.191,6.496 -9.492,11.116 -23.532,13.678c-9.709,1.769 -21.294,3.032 -30.57,3.357c-11.368,0.361 -20.175,-1.371 -21.366,-5.991c-1.336,-5.197 9.673,-12.38 43.671,-21.006c35.464,-9.016 82.337,-13.675 128.836,-15.897c5.631,-14.014 9.269,-22.525 9.324,-22.649c0.812,-1.949 2.7,-3.106 4.675,-3.106Z" style="fill-rule:nonzero;"/><path d="M1763.06,347.273c-0.18,0.036 -56.917,13.751 -78.716,24.868c2.201,-7.291 4.078,-17.288 -0.217,-27.827c-8.012,-19.526 -34.468,9.672 -53.055,34.035c2.635,-8.013 5.197,-15.809 7.723,-23.316c51.937,-41.686 82.507,-114.267 91.277,-157.253c3.465,-17.143 3.465,-30.281 -0.036,-35.911c-5.269,-8.482 -14.148,-6.497 -26.131,11.044c-18.298,26.78 -49.157,96.077 -92.648,233.84l0.036,0.036c-0.685,2.093 0.109,4.511 2.058,5.775c2.382,1.516 5.522,0.866 7.038,-1.48c0.144,-0.217 49.049,-75.829 54.318,-62.945c3.97,9.637 0.505,19.671 -1.552,25.554c-1.444,4.222 -2.454,7.11 -0.758,9.889c2.382,3.934 6.316,3.717 14.004,-0.975c17.288,-10.574 78.861,-25.444 79.041,-25.481c2.707,-0.649 4.403,-3.392 3.754,-6.099c-0.686,-2.743 -3.429,-4.403 -6.136,-3.754Zm-50.781,-168.621c5.883,-8.627 8.734,-12.019 9.131,-11.405c2.13,3.464 1.696,13.895 -1.299,28.476c-7.688,37.752 -32.736,99.073 -74.711,139.929c30.39,-88.245 52.623,-136.139 66.879,-157Zm56.74,179.77c-5.126,22.666 -7.363,42.625 -5.162,55.474c0.47,2.779 3.068,4.655 5.847,4.186c1.985,-0.325 3.501,-1.768 4.043,-3.573c1.515,-4.295 23.893,-67.781 31.075,-56.159c4.15,6.677 4.403,13.643 2.995,19.345c-8.301,6.966 -17.54,14.515 -15.916,18.269c1.419,3.279 3.898,4.656 7.074,4.367c2.13,-0.144 7.904,-2.388 9.997,-4.337c1.608,-1.497 3.285,-3.537 4.728,-6.027c1.516,-2.563 2.852,-5.667 3.79,-9.096c15.159,-10.033 38.438,-23.784 38.546,-23.82c2.419,-1.444 3.213,-4.548 1.805,-6.966c-1.444,-2.418 -4.548,-3.213 -6.966,-1.805c-0.108,0.072 -16.999,9.998 -32.194,21.006c-0.288,-5.27 -1.841,-10.828 -5.233,-16.278c-11.911,-19.273 -28.657,9.565 -39.232,33.133c1.046,-8.626 2.851,-18.263 5.269,-28.441c15.664,-17.432 118.093,-133.54 85.105,-159.093c-2.598,-2.022 -5.45,-3.068 -8.518,-3.249c-8.914,-0.469 -18.659,7.327 -28.332,20.464c-8.878,12.055 -18.082,28.874 -26.636,47.823c-12.524,27.718 -23.748,60.165 -30.714,88.93l-0.433,0.469c-1.372,1.516 -1.66,3.609 -0.938,5.378Zm16.277,-22.738c6.677,-22.702 15.484,-46.631 25.084,-67.853c8.265,-18.335 17.107,-34.54 25.553,-45.981c7.652,-10.395 14.509,-16.603 19.634,-16.35c0.938,0.072 1.913,0.433 2.852,1.155c20.608,15.953 -42.697,93.839 -73.123,129.029Zm65.423,48.227c0.14,-0.036 45.477,-14.923 25.738,-38.142c-4.736,-5.571 -10.455,-6.284 -16.25,-3.735c-4.458,1.949 -8.777,6.061 -12.427,11.343c-3.459,5.01 -6.379,11.112 -8.266,17.473c-4.302,14.458 -3.181,30.334 9.293,37.969c0.298,0.148 0.596,0.295 0.929,0.434c13.033,4.701 29.145,-1.507 45.783,-12.54c15.722,-10.391 25.189,-20.291 39.735,-33.846c2.051,-1.898 9.086,-9.885 7.188,-11.936c-1.906,-2.086 -5.102,-2.206 -7.188,-0.3c-8.579,7.996 -7.341,6.448 -8.332,8.521c-0.651,1.362 5.991,-3.97 0,0c-2.727,1.807 -14.834,13.574 -23.957,20.457c-10.934,8.251 -27.351,16.886 -30.316,18.079c-7.162,2.882 -13.656,3.893 -19.005,2.159c-4.584,-3.078 -9.681,-13.4 -2.925,-15.936Zm-1.764,-9.162c0.095,-0.359 0.199,-0.683 0.329,-1.052c1.549,-5.344 4.018,-10.439 6.849,-14.545c2.613,-3.79 5.466,-6.636 8.149,-7.801c1.609,-0.705 3.141,-0.535 4.459,0.992c8.868,10.448 -13.92,20.137 -19.786,22.406Zm66.202,5.213c2.775,-0.309 16.615,-13.499 29.29,-23.773c6.234,-5.043 12.549,-13.555 17.88,-18.394c6.214,0.384 12.517,0.379 17.778,0.012c-3.586,2.492 -8.628,6.023 -13.851,11.132c-20.153,19.845 -47.398,46.727 -45.674,56.146c0.885,4.676 4.315,6.753 11.011,5.49c12.713,-2.362 27.543,-7.385 40.986,-12.926c17.85,-7.374 33.582,-15.769 38.916,-20.098c2.176,-1.776 2.508,-4.973 0.731,-7.149c-1.777,-2.176 -4.973,-2.508 -7.149,-0.732c-4.719,3.831 -19.377,11.573 -36.335,18.56c-12.247,5.05 -25.521,9.631 -36.959,11.988c5.167,-8.14 25.783,-28.432 41.598,-44.029c7.45,-7.325 24.2,-19.757 21.171,-26.955c-1.333,-3.281 -3.895,-4.254 -7.756,-2.673c-2.669,1.125 -8.419,1.607 -15.076,1.527c2.963,-3.782 4.56,-7.168 3.99,-9.906c-1.169,-5.517 -7.576,-7.677 -21.837,-4.653c-11.071,2.335 -17.266,4.722 -19.914,7.017c-5.124,4.394 -4.207,8.309 0.898,11.71c2.171,1.429 5.729,2.575 9.98,3.453c1.165,0.271 2.411,0.479 3.694,0.692c-3.33,2.747 -6.216,8.003 -14.572,15.655c-8.369,7.664 -8.579,6.956 -14.008,12.92c-3.734,4.102 -10.731,7.711 -10.408,10.532c0.309,2.775 2.84,4.764 5.616,4.454Zm43.966,-52.483c-4.427,-0.392 -8.682,-0.979 -12.222,-1.722l-0.251,-0.035c2.355,-0.695 5.414,-1.475 9.279,-2.29c7.205,-1.52 9.705,-3.798 9.836,-3.161c0.177,0.826 -2.454,3.523 -6.642,7.208Z" style="fill-rule:nonzero;"/><path d="M2097.06,204.006c0.658,-0 1.325,0.128 1.966,0.399c2.599,1.119 3.79,4.079 2.707,6.677c-0.049,0.111 -2.955,6.919 -7.535,18.192c86.721,-3.451 168.838,1.094 169.227,1.117c2.779,0.144 4.945,2.527 4.8,5.342c-0.144,2.779 -2.526,4.945 -5.341,4.8c-0.374,-0.023 -85.103,-4.72 -172.839,-0.948c-24.968,62.601 -79.573,209.624 -58.295,248.287c1.372,2.454 0.47,5.558 -1.985,6.893c-2.49,1.372 -5.557,0.469 -6.929,-1.985c-22.694,-41.264 30.106,-186.732 56.112,-252.674c-44.321,2.275 -88.536,6.846 -122.196,15.405c-26.708,6.785 -36.417,8.338 -36.345,8.662c0.253,0.867 4.548,-1.443 11.189,-1.66c8.806,-0.325 19.814,-1.516 29.054,-3.212c8.481,-1.516 15.519,-1.155 15.375,-1.841c-0.506,-2.743 1.335,-5.414 4.078,-5.919c2.779,-0.505 5.414,1.336 5.919,4.079c1.191,6.496 -9.492,11.116 -23.532,13.678c-9.709,1.769 -21.294,3.032 -30.569,3.357c-11.369,0.361 -20.176,-1.371 -21.367,-5.991c-1.336,-5.197 9.673,-12.38 43.671,-21.006c35.464,-9.016 82.337,-13.675 128.836,-15.897c5.631,-14.014 9.269,-22.525 9.324,-22.649c0.812,-1.949 2.701,-3.106 4.675,-3.106Z" style="fill-rule:nonzero;"/></svg>